<?xml version="1.0" encoding="UTF-8"?><svg id="Livello_2" xmlns="http://www.w3.org/2000/svg" viewBox="0 0 917.69 190.56"><defs><style>.cls-1,.cls-2,.cls-3,.cls-4,.cls-5,.cls-6,.cls-7{stroke-width:0px;}.cls-2{fill:#6473ff;}.cls-3{fill:#40e0d0;}.cls-4{fill:#b6b6f2;}.cls-5{fill:coral;}.cls-6{fill:#ffb6c1;}.cls-7{fill:#ff5572;}</style></defs><g id="Livello_1-2"><path class="cls-1" d="M258.13,93.81c0-32.81,21.24-55.11,52.37-55.11,26.29,0,42.91,14.72,47.32,38.28h-18.09c-3.15-14.3-13.67-22.93-29.45-22.93-20.61,0-34.49,16.41-34.49,39.75s13.88,39.33,34.49,39.33c15.35,0,25.87-8.83,29.24-22.5h18.3c-4.21,23.14-21.66,37.86-47.74,37.86-31.34,0-51.95-21.24-51.95-54.69Z"/><path class="cls-1" d="M372.96,93.6c0-32.6,21.87-54.9,53.21-54.9s53.21,22.3,53.21,54.9-21.87,54.9-53.21,54.9-53.21-22.3-53.21-54.9ZM461.72,93.6c0-22.93-14.3-39.54-35.55-39.54s-35.55,16.62-35.55,39.54,14.3,39.54,35.55,39.54,35.55-16.62,35.55-39.54Z"/><path class="cls-1" d="M499.15,0h17.25v147.23h-17.25V0Z"/><path class="cls-1" d="M539.95,0h17.25v147.23h-17.25V0Z"/><path class="cls-1" d="M681.08,131.46v15.77h-9.46c-14.3,0-19.14-6.1-19.35-16.62-6.73,9.67-17.46,17.88-35.97,17.88-23.56,0-39.54-11.78-39.54-31.34,0-21.45,14.93-33.44,43.12-33.44h31.55v-7.36c0-13.88-9.89-22.29-26.71-22.29-15.14,0-25.24,7.15-27.34,18.09h-17.25c2.52-21.03,19.56-33.44,45.43-33.44,27.34,0,43.12,13.67,43.12,38.7v46.9c0,5.68,2.1,7.15,6.94,7.15h5.47ZM651.42,98.22h-33.23c-15.35,0-23.98,5.68-23.98,17.88,0,10.52,9.04,17.67,23.35,17.67,21.45,0,33.86-12.41,33.86-30.29v-5.26Z"/><path class="cls-1" d="M781.19,39.96h14.93v102.01c0,30.92-16.41,48.58-53.21,48.58-27.34,0-46.48-12.83-49.22-36.39h17.67c2.94,13.46,14.93,21.03,32.81,21.03,22.51,0,34.7-10.52,34.7-33.86v-12.62c-7.15,12.2-18.72,19.77-36.81,19.77-29.66,0-51.53-19.98-51.53-54.9,0-32.81,21.87-54.9,51.53-54.9,18.09,0,30.08,7.78,36.81,19.77l2.31-18.51ZM779.09,94.02c0-23.56-14.3-39.96-35.34-39.96s-35.55,16.19-35.55,39.54,14.3,39.54,35.55,39.54,35.34-16.19,35.34-39.12Z"/><path class="cls-1" d="M815.89,93.6c0-32.6,20.61-54.9,50.9-54.9s50.06,19.14,50.9,50.9c0,2.31-.21,4.84-.42,7.36h-83.29v1.47c.63,20.4,13.46,34.7,33.86,34.7,15.14,0,26.92-7.99,30.5-21.87h17.46c-4.21,21.45-21.87,37.23-46.69,37.23-32.18,0-53.21-22.09-53.21-54.9ZM899.18,82.66c-1.68-18.51-14.3-28.81-32.18-28.81-15.77,0-30.29,11.36-31.97,28.81h64.15Z"/><path class="cls-6" d="M190.54,2.99v104.27c0,1.8-1.29,2.53-1.85,2.76-.55.23-1.98.63-3.25-.64L81.18,5.11c-1.27-1.27-.88-2.71-.64-3.25.21-.56.96-1.85,2.76-1.85h104.26c1.65,0,2.99,1.34,2.99,2.99Z"/><path class="cls-4" d="M177.82,120.81c-.23.55-.96,1.83-2.76,1.83h-104.27c-.79,0-1.55-.31-2.11-.88-.56-.56-.88-1.31-.88-2.11V15.4c0-1.8,1.29-2.53,1.85-2.76.55-.23,1.98-.63,3.25.64l104.26,104.27c1.29,1.27.89,2.69.66,3.25Z"/><path class="cls-3" d="M56.23,70.11v116.72c0,1.64-1.34,2.99-2.99,2.99H2.99c-1.65,0-2.99-1.35-2.99-2.99v-116.72c0-1.65,1.34-2.99,2.99-2.99h50.25c1.65,0,2.99,1.34,2.99,2.99Z"/><rect class="cls-7" width="55.6" height="55.6" rx="2.99" ry="2.99"/><path class="cls-2" d="M190.54,149.61v37.21c0,1.64-1.34,2.99-2.99,2.99h-37.21c-1.8,0-2.53-1.29-2.76-1.85-.23-.56-.63-1.98.64-3.25l37.21-37.21c.69-.69,1.44-.89,2.05-.89.53,0,.96.13,1.21.25.56.23,1.85.96,1.85,2.76Z"/><path class="cls-5" d="M177.25,139.32l-47.55,47.56c-1.87,1.88-4.42,2.93-7.07,2.93h-52.13c-1.07,0-1.78-.56-2.11-.89-.33-.33-.88-1.04-.88-2.11l.25-49.62c0-1.64,1.34-2.97,2.97-2.97h104.41c1.82,0,2.54,1.29,2.78,1.85.21.55.61,1.98-.66,3.25Z"/></g></svg>