<?xml version="1.0" encoding="utf-8"?>
<!-- Generator: Adobe Illustrator 26.3.1, SVG Export Plug-In . SVG Version: 6.00 Build 0)  -->
<svg version="1.1" id="Layer_1" xmlns="http://www.w3.org/2000/svg" xmlns:xlink="http://www.w3.org/1999/xlink" x="0px" y="0px"
	 viewBox="0 0 18 18" style="enable-background:new 0 0 18 18;" xml:space="preserve">
<style type="text/css">
	.st0{fill-opacity:0;}
	.st1{fill:#FFFFFF;}
</style>
<g id="Group_4476" transform="translate(-921 -421)">
	<rect id="Rectangle_3014" x="921" y="421" class="st0" width="18" height="18"/>
	<g id="Icon_feather-chevron-down" transform="translate(925.75 422.25)">
		<path id="Path_3433" class="st1" d="M0.8,15.5c0.2,0,0.4-0.1,0.5-0.2l7-7c0.3-0.3,0.3-0.8,0-1.1c0,0,0,0,0,0l-7-7
			C1-0.1,0.5-0.1,0.2,0.2c-0.3,0.3-0.3,0.8,0,1l6.5,6.5l-6.5,6.5c-0.3,0.3-0.3,0.8,0,1.1C0.4,15.4,0.6,15.5,0.8,15.5z"/>
	</g>
</g>
</svg>
