<?xml version="1.0" encoding="utf-8"?>
<!-- Generator: Adobe Illustrator 26.3.1, SVG Export Plug-In . SVG Version: 6.00 Build 0)  -->
<svg version="1.1" id="Layer_1" xmlns="http://www.w3.org/2000/svg" xmlns:xlink="http://www.w3.org/1999/xlink" x="0px" y="0px"
	 viewBox="0 0 18.2 18" style="enable-background:new 0 0 18.2 18;" xml:space="preserve">
<style type="text/css">
	.st0{fill:#FFFFFF;}
</style>
<g id="Group_4384" transform="translate(-108.768 -659.595)">
	<path id="Path_3470" class="st0" d="M122.2,677.6c-0.1,0-0.2,0-0.3-0.1c-0.3-0.1-0.5-0.4-0.5-0.7v-16.5c0-0.4,0.3-0.8,0.8-0.8
		c0.4,0,0.8,0.3,0.8,0.8V675l2.7-2.7c0.3-0.3,0.8-0.3,1.1,0c0,0,0,0,0,0c0.3,0.3,0.3,0.8,0,1.1l-4.1,4.1
		C122.6,677.5,122.4,677.6,122.2,677.6z"/>
	<g id="Group_4379">
		<path id="Path_3471" class="st0" d="M119.1,661.1h-9.6c-0.4,0-0.8-0.3-0.8-0.8s0.3-0.8,0.8-0.8h9.6c0.4,0,0.8,0.3,0.8,0.8
			S119.5,661.1,119.1,661.1z"/>
	</g>
	<g id="Group_4380">
		<path id="Path_3472" class="st0" d="M111.1,677.6h-1.6c-0.4,0-0.8-0.3-0.8-0.8s0.3-0.8,0.8-0.8h1.6c0.4,0,0.8,0.3,0.8,0.8
			S111.5,677.6,111.1,677.6z"/>
	</g>
	<g id="Group_4381">
		<path id="Path_3473" class="st0" d="M117.1,665.2h-7.6c-0.4,0-0.8-0.3-0.8-0.8s0.3-0.8,0.8-0.8h7.6c0.4,0,0.8,0.3,0.8,0.8
			S117.5,665.2,117.1,665.2z"/>
	</g>
	<g id="Group_4382">
		<path id="Path_3474" class="st0" d="M113.1,673.5h-3.6c-0.4,0-0.8-0.3-0.8-0.8s0.3-0.8,0.8-0.8h3.6c0.4,0,0.8,0.3,0.8,0.8
			S113.5,673.5,113.1,673.5z"/>
	</g>
	<g id="Group_4383">
		<path id="Path_3475" class="st0" d="M115.1,669.3h-5.6c-0.4,0-0.8-0.3-0.8-0.8s0.3-0.8,0.8-0.8h5.6c0.4,0,0.8,0.3,0.8,0.8
			S115.5,669.3,115.1,669.3z"/>
	</g>
</g>
</svg>
