<?xml version="1.0" encoding="utf-8"?>
<!-- Generator: Adobe Illustrator 26.3.1, SVG Export Plug-In . SVG Version: 6.00 Build 0)  -->
<svg version="1.1" id="Layer_1" xmlns="http://www.w3.org/2000/svg" xmlns:xlink="http://www.w3.org/1999/xlink" x="0px" y="0px"
	 viewBox="0 0 12.9 12.9" style="enable-background:new 0 0 12.9 12.9;" xml:space="preserve">
<style type="text/css">
	.st0{fill:#FFFFFF;}
</style>
<g id="stars" transform="translate(0 0.001)">
	<path id="Path_38179" class="st0" d="M12,6.8C11.4,5.7,10,5.3,9,5.9c0,0,0,0,0,0c1.1-0.6,1.5-1.9,0.9-3c0,0,0,0,0,0
		c0.6,1.1,1.9,1.5,3,0.9c0,0,0,0,0,0C11.8,4.4,11.4,5.7,12,6.8C12,6.8,12,6.8,12,6.8z"/>
	<path id="Path_38180" class="st0" d="M5.1,12.9c-0.6-1.1-1.9-1.5-3-0.9c0,0,0,0,0,0C3.1,11.4,3.5,10,3,9c0,0,0,0,0,0
		c0.6,1.1,1.9,1.5,3,0.9c0,0,0,0,0,0C4.9,10.4,4.5,11.8,5.1,12.9C5.1,12.9,5.1,12.9,5.1,12.9z"/>
	<path id="Path_38181" class="st0" d="M4.5,5.8C3.6,4.2,1.6,3.6,0,4.5c0,0,0,0,0,0C1.6,3.6,2.2,1.6,1.3,0c0.9,1.6,2.9,2.2,4.5,1.3
		C4.2,2.2,3.6,4.2,4.5,5.8z"/>
</g>
</svg>
