<?xml version="1.0" encoding="utf-8"?>
<!-- Generator: Adobe Illustrator 26.3.1, SVG Export Plug-In . SVG Version: 6.00 Build 0)  -->
<svg version="1.1" id="Layer_1" xmlns="http://www.w3.org/2000/svg" xmlns:xlink="http://www.w3.org/1999/xlink" x="0px" y="0px"
	 viewBox="0 0 13.6 13.9" style="enable-background:new 0 0 13.6 13.9;" xml:space="preserve">
<style type="text/css">
	.st0{fill:#3B3B3B;}
</style>
<g id="Group_40446" transform="translate(-1483.771 -26.109)">
	<path id="Path_38185" class="st0" d="M1495.7,26.8c0.2,0.2,0.3,0.4,0.3,0.6c0.2,0,0.5,0.1,0.7,0.3c0.3,0.2,0.5,0.6,0.3,1
		c0,0,0,0,0,0c0,0,0,0,0,0l0,0c0.4-0.4,0.3-1-0.1-1.4c-0.2-0.2-0.4-0.3-0.7-0.3c-0.1-0.5-0.5-0.9-1.1-0.9c-0.2,0-0.5,0.1-0.6,0.3
		c0,0,0,0,0,0.1c0,0,0,0,0,0C1495.1,26.4,1495.4,26.5,1495.7,26.8z"/>
	<path id="Path_38189" class="st0" d="M1486.2,36.5c0.2,0.2,0.3,0.4,0.3,0.6c0.2,0,0.5,0.1,0.7,0.3c0.3,0.2,0.5,0.6,0.3,1
		c0,0,0,0,0,0c0,0,0,0,0,0l0,0c0.4-0.4,0.3-1-0.1-1.4c-0.2-0.2-0.4-0.3-0.7-0.3c-0.1-0.5-0.5-0.9-1.1-0.9c-0.2,0-0.5,0.1-0.6,0.3
		c0,0,0,0,0,0.1c0,0,0,0,0,0C1485.5,36.1,1485.9,36.2,1486.2,36.5z"/>
	<path id="Path_38186" class="st0" d="M1490.1,31c0.2,0.2,0.3,0.4,0.3,0.6c0.2,0,0.5,0.1,0.7,0.3c0.3,0.2,0.5,0.6,0.3,1c0,0,0,0,0,0
		c0,0,0,0,0,0l0,0c0.4-0.4,0.3-1-0.1-1.4c-0.2-0.2-0.4-0.3-0.7-0.3c-0.1-0.5-0.5-0.9-1.1-0.9c-0.2,0-0.5,0.1-0.6,0.3c0,0,0,0,0,0.1
		c0,0,0,0,0,0C1489.5,30.6,1489.9,30.7,1490.1,31z"/>
	<path id="Path_38187" class="st0" d="M1493,38.1c0.2,0.2,0.3,0.4,0.3,0.6c0.2,0,0.5,0.1,0.7,0.3c0.3,0.2,0.5,0.6,0.3,1c0,0,0,0,0,0
		c0,0,0,0,0,0l0,0c0.4-0.4,0.3-1-0.1-1.4c-0.2-0.2-0.4-0.3-0.7-0.3c-0.1-0.5-0.5-0.9-1.1-0.9c-0.2,0-0.5,0.1-0.6,0.3c0,0,0,0,0,0.1
		c0,0,0,0,0,0C1492.3,37.7,1492.7,37.8,1493,38.1z"/>
	<path id="Path_38188" class="st0" d="M1484.8,27.4c0.2,0.2,0.3,0.4,0.3,0.6c0.2,0,0.5,0.1,0.7,0.3c0.3,0.2,0.5,0.6,0.3,1
		c0,0,0,0,0,0c0,0,0,0,0,0l0,0c0.4-0.4,0.3-1-0.1-1.4c-0.2-0.2-0.4-0.3-0.7-0.3c-0.1-0.5-0.5-0.9-1.1-0.9c-0.2,0-0.5,0.1-0.6,0.3
		c0,0,0,0,0,0.1c0,0,0,0,0,0C1484.2,27,1484.6,27.1,1484.8,27.4z"/>
</g>
</svg>
