<?xml version="1.0" encoding="utf-8"?>
<!-- Generator: Adobe Illustrator 26.3.1, SVG Export Plug-In . SVG Version: 6.00 Build 0)  -->
<svg version="1.1" id="Layer_1" xmlns="http://www.w3.org/2000/svg" xmlns:xlink="http://www.w3.org/1999/xlink" x="0px" y="0px"
	 viewBox="0 0 18.2 18" style="enable-background:new 0 0 18.2 18;" xml:space="preserve">
<style type="text/css">
	.st0{fill:#FFFFFF;}
</style>
<g id="Group_4434" transform="translate(-108.768 -699.866)">
	<path id="Path_3546" class="st0" d="M122.2,699.9c-0.4,0-0.8,0.3-0.8,0.8l0,0v16.5c0,0.4,0.3,0.8,0.8,0.8c0.4,0,0.8-0.3,0.8-0.8
		l0,0v-14.6l2.7,2.7c0.3,0.3,0.8,0.3,1.1,0s0.3-0.8,0-1.1l-4.1-4.1C122.6,699.9,122.4,699.9,122.2,699.9z"/>
	<g id="Group_4429">
		<path id="Path_3547" class="st0" d="M119.1,701.4h-9.6c-0.4,0-0.8-0.3-0.8-0.8s0.3-0.8,0.8-0.8h9.6c0.4,0,0.8,0.3,0.8,0.8
			S119.5,701.4,119.1,701.4z"/>
	</g>
	<g id="Group_4430">
		<path id="Path_3548" class="st0" d="M111.1,717.9h-1.6c-0.4,0-0.8-0.3-0.8-0.8s0.3-0.8,0.8-0.8h1.6c0.4,0,0.8,0.3,0.8,0.8
			S111.5,717.9,111.1,717.9z"/>
	</g>
	<g id="Group_4431">
		<path id="Path_3549" class="st0" d="M117.1,705.5h-7.6c-0.4,0-0.8-0.3-0.8-0.8s0.3-0.8,0.8-0.8h7.6c0.4,0,0.8,0.3,0.8,0.8
			S117.5,705.5,117.1,705.5z"/>
	</g>
	<g id="Group_4432">
		<path id="Path_3550" class="st0" d="M113.1,713.7h-3.6c-0.4,0-0.8-0.3-0.8-0.8s0.3-0.8,0.8-0.8h3.6c0.4,0,0.8,0.3,0.8,0.8
			S113.5,713.7,113.1,713.7z"/>
	</g>
	<g id="Group_4433">
		<path id="Path_3551" class="st0" d="M115.1,709.6h-5.6c-0.4,0-0.8-0.3-0.8-0.8s0.3-0.8,0.8-0.8h5.6c0.4,0,0.8,0.3,0.8,0.8
			S115.5,709.6,115.1,709.6z"/>
	</g>
</g>
</svg>
